<?xml version="1.0" encoding="UTF-8"?>
<svg width="40px" height="40px" viewBox="0 0 40 40" version="1.1" xmlns="http://www.w3.org/2000/svg" xmlns:xlink="http://www.w3.org/1999/xlink">
    <!-- Generator: Sketch 63.1 (92452) - https://sketch.com -->
    <title>apple</title>
    <desc>Created with Sketch.</desc>
    <defs>
        <circle id="path-1" cx="12" cy="12" r="12"></circle>
        <filter x="-29.2%" y="-20.8%" width="158.3%" height="158.3%" filterUnits="objectBoundingBox" id="filter-2">
            <feOffset dx="0" dy="2" in="SourceAlpha" result="shadowOffsetOuter1"></feOffset>
            <feGaussianBlur stdDeviation="2" in="shadowOffsetOuter1" result="shadowBlurOuter1"></feGaussianBlur>
            <feComposite in="shadowBlurOuter1" in2="SourceAlpha" operator="out" result="shadowBlurOuter1"></feComposite>
            <feColorMatrix values="0 0 0 0 0   0 0 0 0 0   0 0 0 0 0  0 0 0 0.5 0" type="matrix" in="shadowBlurOuter1"></feColorMatrix>
        </filter>
    </defs>
    <g id="apple" stroke="none" stroke-width="1" fill="none" fill-rule="evenodd">
        <g transform="translate(8.000000, 8.000000)" id="Oval">
            <g>
                <use fill="black" fill-opacity="1" filter="url(#filter-2)" xlink:href="#path-1"></use>
                <circle stroke="#F7B500" stroke-width="1" stroke-linejoin="square" fill="#8E8E93" fill-rule="evenodd" cx="12" cy="12" r="11.5"></circle>
            </g>
        </g>
        <g id="Apple_logo_black" transform="translate(14.000000, 12.000000)" fill="#FFFFFF" fill-rule="nonzero">
            <path d="M11.7484986,11.1464034 C11.533051,11.6461114 11.2780311,12.1060897 10.9825599,12.5289878 C10.5798043,13.1055052 10.2500374,13.5045657 9.99589692,13.7261679 C9.60193548,14.0899129 9.17983369,14.2761996 8.72783294,14.2867944 C8.40334236,14.2867944 8.01201876,14.194092 7.55650069,14.0060402 C7.09948779,13.8188692 6.67949644,13.7261679 6.29547171,13.7261679 C5.89271631,13.7261679 5.4607654,13.8188692 4.99873998,14.0060402 C4.53601052,14.194092 4.16324215,14.2920918 3.8782354,14.3018035 C3.44478965,14.3203437 3.01275126,14.1287596 2.58150367,13.7261679 C2.30625843,13.4851423 1.96198177,13.0719559 1.54955294,12.4866087 C1.10704978,11.8615332 0.743250833,11.1366917 0.458244199,10.3103195 C0.153011894,9.41773146 0,8.55339555 0,7.71660567 C0,6.7580669 0.206302246,5.93134146 0.619522242,5.2385483 C0.944276765,4.68207166 1.37631547,4.24310542 1.91704514,3.92085537 C2.4577753,3.59860581 3.04203449,3.43439084 3.67123006,3.42388438 C4.01550648,3.42388438 4.46697982,3.53080072 5.02802321,3.74092535 C5.58748392,3.95175622 5.94671018,4.05867256 6.10420665,4.05867256 C6.22195541,4.05867256 6.62101745,3.93365704 7.29752349,3.6844214 C7.93727174,3.45328433 8.47721002,3.3575802 8.91953744,3.39527898 C10.1181307,3.49239546 11.0186144,3.96676504 11.6174713,4.82138928 C10.5455089,5.47348185 10.0152434,6.38681731 10.0257959,7.5584824 C10.0354691,8.47111151 10.3652359,9.2305616 11.013338,9.83356656 C11.3070502,10.1134379 11.6350587,10.3297426 12,10.4833633 C11.920857,10.7137939 11.837316,10.9345131 11.7484986,11.1464034 Z M8.99956122,0.286142043 C8.99956122,1.00145686 8.73926474,1.66934428 8.22043169,2.28753394 C7.59431364,3.02244054 6.83699315,3.44710384 6.01574124,3.38009367 C6.00527676,3.29427796 5.99920896,3.20395989 5.99920896,3.10905079 C5.99920896,2.42234932 6.29696667,1.6874431 6.82573727,1.08655742 C7.08972627,0.782318485 7.42547309,0.529347923 7.83262553,0.327548512 C8.23889837,0.128760068 8.62318697,0.0188257774 8.98461126,0 C8.99516454,0.0956264167 8.99956122,0.191258852 8.99956122,0.286132767 L8.99956122,0.286142043 Z" id="path4"></path>
        </g>
    </g>
</svg>