<?xml version="1.0" encoding="UTF-8"?>
<svg width="40px" height="40px" viewBox="0 0 40 40" version="1.1" xmlns="http://www.w3.org/2000/svg" xmlns:xlink="http://www.w3.org/1999/xlink">
    <!-- Generator: Sketch 63.1 (92452) - https://sketch.com -->
    <title>facebook</title>
    <desc>Created with Sketch.</desc>
    <defs>
        <circle id="path-1" cx="12" cy="12" r="12"></circle>
        <filter x="-29.2%" y="-20.8%" width="158.3%" height="158.3%" filterUnits="objectBoundingBox" id="filter-2">
            <feOffset dx="0" dy="2" in="SourceAlpha" result="shadowOffsetOuter1"></feOffset>
            <feGaussianBlur stdDeviation="2" in="shadowOffsetOuter1" result="shadowBlurOuter1"></feGaussianBlur>
            <feComposite in="shadowBlurOuter1" in2="SourceAlpha" operator="out" result="shadowBlurOuter1"></feComposite>
            <feColorMatrix values="0 0 0 0 0   0 0 0 0 0   0 0 0 0 0  0 0 0 0.5 0" type="matrix" in="shadowBlurOuter1"></feColorMatrix>
        </filter>
    </defs>
    <g id="facebook" stroke="none" stroke-width="1" fill="none" fill-rule="evenodd">
        <g transform="translate(8.000000, 8.000000)" id="Oval">
            <g>
                <use fill="black" fill-opacity="1" filter="url(#filter-2)" xlink:href="#path-1"></use>
                <use fill-opacity="0.8" fill="#F7B500" fill-rule="evenodd" xlink:href="#path-1"></use>
            </g>
        </g>
        <g id="F_icon" transform="translate(17.000000, 12.000000)"></g>
        <circle id="Oval" fill="#45619D" cx="20" cy="20" r="11"></circle>
        <path d="M21.8418176,29.3307546 L21.8418176,21.4253578 L24.4952738,21.4253578 L24.8925912,18.3444843 L21.8418176,18.3444843 L21.8418176,16.3775413 C21.8418176,15.4855574 22.0895073,14.8776997 23.3685906,14.8776997 L25,14.8769869 L25,12.1214289 C24.7178539,12.0838834 23.7494323,12 22.6227491,12 C20.2706078,12 18.6602683,13.4357607 18.6602683,16.0724244 L18.6602683,18.3444843 L16,18.3444843 L16,21.4253578 L18.6602683,21.4253578 L18.6602683,29.3307546 L21.8418176,29.3307546 Z" id="f" fill="#FFFFFF" fill-rule="nonzero"></path>
    </g>
</svg>